<mxfile host="app.diagrams.net" modified="2021-12-15T14:25:26.450Z" agent="5.0 (Macintosh; Intel Mac OS X 10_15_6) AppleWebKit/605.1.15 (KHTML, like Gecko) Version/14.0.2 Safari/605.1.15" etag="WpePVDDw0Ovhkz3oYO8T" version="15.9.6" type="github">
  <diagram id="P9s8tQnz6vP6Jp-wh3C2" name="Page-1">
    <mxGraphModel dx="1351" dy="921" grid="1" gridSize="10" guides="1" tooltips="1" connect="1" arrows="1" fold="1" page="1" pageScale="1" pageWidth="1169" pageHeight="827" math="1" shadow="0">
      <root>
        <mxCell id="0" />
        <mxCell id="1" parent="0" />
        <mxCell id="JJIb5TfWh0ZeVr9pCVY0-63" value="" style="edgeStyle=orthogonalEdgeStyle;rounded=0;orthogonalLoop=1;jettySize=auto;html=1;fontSize=16;strokeWidth=2;" edge="1" parent="1" target="JJIb5TfWh0ZeVr9pCVY0-60">
          <mxGeometry relative="1" as="geometry">
            <mxPoint x="945" y="435" as="sourcePoint" />
          </mxGeometry>
        </mxCell>
        <mxCell id="JJIb5TfWh0ZeVr9pCVY0-35" value="" style="rounded=0;whiteSpace=wrap;html=1;fillColor=none;" vertex="1" parent="1">
          <mxGeometry x="495" y="259" width="450" height="350" as="geometry" />
        </mxCell>
        <mxCell id="JJIb5TfWh0ZeVr9pCVY0-1" value="" style="endArrow=none;html=1;rounded=0;strokeColor=#000000;strokeWidth=2;" edge="1" parent="1" source="JJIb5TfWh0ZeVr9pCVY0-29" target="JJIb5TfWh0ZeVr9pCVY0-25">
          <mxGeometry width="50" height="50" relative="1" as="geometry">
            <mxPoint x="158.25666099444197" y="520.5761256507651" as="sourcePoint" />
            <mxPoint x="151.6439030984759" y="445.4323250690213" as="targetPoint" />
          </mxGeometry>
        </mxCell>
        <mxCell id="JJIb5TfWh0ZeVr9pCVY0-2" value="" style="endArrow=none;html=1;rounded=0;strokeWidth=2;" edge="1" parent="1" source="JJIb5TfWh0ZeVr9pCVY0-26" target="JJIb5TfWh0ZeVr9pCVY0-29">
          <mxGeometry width="50" height="50" relative="1" as="geometry">
            <mxPoint x="305" y="555.5" as="sourcePoint" />
            <mxPoint x="355" y="505.5" as="targetPoint" />
          </mxGeometry>
        </mxCell>
        <mxCell id="JJIb5TfWh0ZeVr9pCVY0-3" value="" style="endArrow=none;html=1;rounded=0;strokeColor=#000000;strokeWidth=2;" edge="1" parent="1" source="JJIb5TfWh0ZeVr9pCVY0-27" target="JJIb5TfWh0ZeVr9pCVY0-28">
          <mxGeometry width="50" height="50" relative="1" as="geometry">
            <mxPoint x="168.25666099444197" y="530.5761256507651" as="sourcePoint" />
            <mxPoint x="161.6439030984759" y="455.4323250690213" as="targetPoint" />
          </mxGeometry>
        </mxCell>
        <mxCell id="JJIb5TfWh0ZeVr9pCVY0-4" value="" style="endArrow=none;html=1;rounded=0;strokeColor=#000000;strokeWidth=2;" edge="1" parent="1" source="JJIb5TfWh0ZeVr9pCVY0-24" target="JJIb5TfWh0ZeVr9pCVY0-27">
          <mxGeometry width="50" height="50" relative="1" as="geometry">
            <mxPoint x="178.25666099444197" y="540.5761256507651" as="sourcePoint" />
            <mxPoint x="171.6439030984759" y="465.4323250690213" as="targetPoint" />
          </mxGeometry>
        </mxCell>
        <mxCell id="JJIb5TfWh0ZeVr9pCVY0-58" value="" style="edgeStyle=orthogonalEdgeStyle;rounded=0;orthogonalLoop=1;jettySize=auto;html=1;fontSize=16;strokeWidth=2;" edge="1" parent="1" target="JJIb5TfWh0ZeVr9pCVY0-38">
          <mxGeometry relative="1" as="geometry">
            <mxPoint x="415" y="435" as="sourcePoint" />
            <Array as="points" />
          </mxGeometry>
        </mxCell>
        <mxCell id="JJIb5TfWh0ZeVr9pCVY0-5" value="" style="whiteSpace=wrap;html=1;aspect=fixed;strokeColor=#656565;fillColor=none;" vertex="1" parent="1">
          <mxGeometry x="105" y="278" width="310" height="310" as="geometry" />
        </mxCell>
        <mxCell id="JJIb5TfWh0ZeVr9pCVY0-6" value="" style="endArrow=none;html=1;rounded=0;strokeWidth=2;" edge="1" parent="1" source="JJIb5TfWh0ZeVr9pCVY0-26" target="JJIb5TfWh0ZeVr9pCVY0-28">
          <mxGeometry width="50" height="50" relative="1" as="geometry">
            <mxPoint x="269" y="512" as="sourcePoint" />
            <mxPoint x="314" y="475.5" as="targetPoint" />
          </mxGeometry>
        </mxCell>
        <mxCell id="JJIb5TfWh0ZeVr9pCVY0-7" value="" style="endArrow=none;html=1;rounded=0;strokeColor=#000000;strokeWidth=2;" edge="1" parent="1" source="JJIb5TfWh0ZeVr9pCVY0-27" target="JJIb5TfWh0ZeVr9pCVY0-14">
          <mxGeometry width="50" height="50" relative="1" as="geometry">
            <mxPoint x="373.7404418809597" y="455.5342192670637" as="sourcePoint" />
            <mxPoint x="250" y="405.5" as="targetPoint" />
          </mxGeometry>
        </mxCell>
        <mxCell id="JJIb5TfWh0ZeVr9pCVY0-8" value="" style="ellipse;whiteSpace=wrap;html=1;aspect=fixed;strokeColor=#000000;fillColor=#A9C4EB;" vertex="1" parent="1">
          <mxGeometry x="350" y="450.5" width="40" height="40" as="geometry" />
        </mxCell>
        <mxCell id="JJIb5TfWh0ZeVr9pCVY0-9" value="" style="ellipse;whiteSpace=wrap;html=1;aspect=fixed;strokeColor=#000000;fillColor=#A9C4EB;" vertex="1" parent="1">
          <mxGeometry x="120" y="395.5" width="40" height="40" as="geometry" />
        </mxCell>
        <mxCell id="JJIb5TfWh0ZeVr9pCVY0-10" value="" style="ellipse;whiteSpace=wrap;html=1;aspect=fixed;strokeColor=#000000;fillColor=#A9C4EB;" vertex="1" parent="1">
          <mxGeometry x="249" y="410.5" width="40" height="40" as="geometry" />
        </mxCell>
        <mxCell id="JJIb5TfWh0ZeVr9pCVY0-11" value="" style="ellipse;whiteSpace=wrap;html=1;aspect=fixed;strokeColor=#000000;fillColor=#A9C4EB;" vertex="1" parent="1">
          <mxGeometry x="130" y="510.5" width="40" height="40" as="geometry" />
        </mxCell>
        <mxCell id="JJIb5TfWh0ZeVr9pCVY0-12" value="" style="ellipse;whiteSpace=wrap;html=1;aspect=fixed;strokeColor=#000000;fillColor=#A9C4EB;" vertex="1" parent="1">
          <mxGeometry x="244" y="505.5" width="40" height="40" as="geometry" />
        </mxCell>
        <mxCell id="JJIb5TfWh0ZeVr9pCVY0-13" value="" style="ellipse;whiteSpace=wrap;html=1;aspect=fixed;strokeColor=#000000;fillColor=#A9C4EB;" vertex="1" parent="1">
          <mxGeometry x="170" y="315.5" width="40" height="40" as="geometry" />
        </mxCell>
        <mxCell id="JJIb5TfWh0ZeVr9pCVY0-14" value="" style="ellipse;whiteSpace=wrap;html=1;aspect=fixed;strokeColor=#000000;fillColor=#A9C4EB;" vertex="1" parent="1">
          <mxGeometry x="360" y="325.5" width="40" height="40" as="geometry" />
        </mxCell>
        <mxCell id="JJIb5TfWh0ZeVr9pCVY0-15" value="" style="endArrow=none;html=1;rounded=0;strokeColor=#000000;strokeWidth=2;" edge="1" parent="1" source="JJIb5TfWh0ZeVr9pCVY0-12" target="JJIb5TfWh0ZeVr9pCVY0-8">
          <mxGeometry width="50" height="50" relative="1" as="geometry">
            <mxPoint x="200" y="455.5" as="sourcePoint" />
            <mxPoint x="352.66254856166506" y="488.61722753037634" as="targetPoint" />
          </mxGeometry>
        </mxCell>
        <mxCell id="JJIb5TfWh0ZeVr9pCVY0-16" value="" style="endArrow=none;html=1;rounded=0;strokeColor=#000000;fontSize=16;fontStyle=1;strokeWidth=2;" edge="1" parent="1" source="JJIb5TfWh0ZeVr9pCVY0-12" target="JJIb5TfWh0ZeVr9pCVY0-9">
          <mxGeometry width="50" height="50" relative="1" as="geometry">
            <mxPoint x="200" y="455.5" as="sourcePoint" />
            <mxPoint x="250" y="405.5" as="targetPoint" />
          </mxGeometry>
        </mxCell>
        <mxCell id="JJIb5TfWh0ZeVr9pCVY0-17" value="" style="endArrow=none;html=1;rounded=0;strokeColor=#000000;strokeWidth=2;" edge="1" parent="1" source="JJIb5TfWh0ZeVr9pCVY0-11" target="JJIb5TfWh0ZeVr9pCVY0-12">
          <mxGeometry width="50" height="50" relative="1" as="geometry">
            <mxPoint x="200" y="455.5" as="sourcePoint" />
            <mxPoint x="250" y="405.5" as="targetPoint" />
          </mxGeometry>
        </mxCell>
        <mxCell id="JJIb5TfWh0ZeVr9pCVY0-18" value="" style="endArrow=none;html=1;rounded=0;strokeColor=#000000;strokeWidth=2;" edge="1" parent="1" source="JJIb5TfWh0ZeVr9pCVY0-13" target="JJIb5TfWh0ZeVr9pCVY0-14">
          <mxGeometry width="50" height="50" relative="1" as="geometry">
            <mxPoint x="200" y="455.5" as="sourcePoint" />
            <mxPoint x="250" y="405.5" as="targetPoint" />
          </mxGeometry>
        </mxCell>
        <mxCell id="JJIb5TfWh0ZeVr9pCVY0-19" value="" style="endArrow=none;html=1;rounded=0;strokeColor=#000000;strokeWidth=2;" edge="1" parent="1" source="JJIb5TfWh0ZeVr9pCVY0-9" target="JJIb5TfWh0ZeVr9pCVY0-10">
          <mxGeometry width="50" height="50" relative="1" as="geometry">
            <mxPoint x="200" y="455.5" as="sourcePoint" />
            <mxPoint x="250" y="405.5" as="targetPoint" />
          </mxGeometry>
        </mxCell>
        <mxCell id="JJIb5TfWh0ZeVr9pCVY0-20" value="" style="endArrow=none;html=1;rounded=0;strokeColor=#000000;strokeWidth=2;" edge="1" parent="1" source="JJIb5TfWh0ZeVr9pCVY0-9" target="JJIb5TfWh0ZeVr9pCVY0-13">
          <mxGeometry width="50" height="50" relative="1" as="geometry">
            <mxPoint x="200" y="455.5" as="sourcePoint" />
            <mxPoint x="250" y="405.5" as="targetPoint" />
          </mxGeometry>
        </mxCell>
        <mxCell id="JJIb5TfWh0ZeVr9pCVY0-21" value="" style="endArrow=none;html=1;rounded=0;strokeColor=#000000;strokeWidth=2;" edge="1" parent="1" source="JJIb5TfWh0ZeVr9pCVY0-11" target="JJIb5TfWh0ZeVr9pCVY0-9">
          <mxGeometry width="50" height="50" relative="1" as="geometry">
            <mxPoint x="200" y="455.5" as="sourcePoint" />
            <mxPoint x="250" y="405.5" as="targetPoint" />
          </mxGeometry>
        </mxCell>
        <mxCell id="JJIb5TfWh0ZeVr9pCVY0-22" value="" style="endArrow=none;html=1;rounded=0;strokeColor=#000000;strokeWidth=2;" edge="1" parent="1" source="JJIb5TfWh0ZeVr9pCVY0-10" target="JJIb5TfWh0ZeVr9pCVY0-14">
          <mxGeometry width="50" height="50" relative="1" as="geometry">
            <mxPoint x="200" y="455.5" as="sourcePoint" />
            <mxPoint x="250" y="405.5" as="targetPoint" />
          </mxGeometry>
        </mxCell>
        <mxCell id="JJIb5TfWh0ZeVr9pCVY0-23" value="&lt;font style=&quot;font-size: 11px&quot;&gt;$$(c^1,b^1_1)$$&lt;/font&gt;" style="text;html=1;strokeColor=none;fillColor=none;align=center;verticalAlign=middle;whiteSpace=wrap;rounded=0;fontSize=11;" vertex="1" parent="1">
          <mxGeometry x="175" y="320.5" width="30" height="30" as="geometry" />
        </mxCell>
        <mxCell id="JJIb5TfWh0ZeVr9pCVY0-24" value="&lt;span style=&quot;font-size: 11px&quot;&gt;$$(c^7,b^7_1)$$&lt;/span&gt;" style="text;html=1;strokeColor=none;fillColor=none;align=center;verticalAlign=middle;whiteSpace=wrap;rounded=0;fontSize=11;" vertex="1" parent="1">
          <mxGeometry x="135" y="515.5" width="30" height="30" as="geometry" />
        </mxCell>
        <mxCell id="JJIb5TfWh0ZeVr9pCVY0-25" value="&lt;span style=&quot;font-size: 11px&quot;&gt;$$(c^5,b^5_1)$$&lt;/span&gt;" style="text;html=1;strokeColor=none;fillColor=none;align=center;verticalAlign=middle;whiteSpace=wrap;rounded=0;fontSize=11;" vertex="1" parent="1">
          <mxGeometry x="125" y="400.5" width="30" height="30" as="geometry" />
        </mxCell>
        <mxCell id="JJIb5TfWh0ZeVr9pCVY0-26" value="&lt;span style=&quot;font-size: 11px&quot;&gt;$$(c^6,b^6_1)$$&lt;/span&gt;" style="text;html=1;strokeColor=none;fillColor=none;align=center;verticalAlign=middle;whiteSpace=wrap;rounded=0;fontSize=11;" vertex="1" parent="1">
          <mxGeometry x="249" y="510.5" width="30" height="30" as="geometry" />
        </mxCell>
        <mxCell id="JJIb5TfWh0ZeVr9pCVY0-27" value="&lt;span style=&quot;font-size: 11px&quot;&gt;$$(c^4,b^4_1)$$&lt;/span&gt;" style="text;html=1;strokeColor=none;fillColor=none;align=center;verticalAlign=middle;whiteSpace=wrap;rounded=0;fontSize=11;" vertex="1" parent="1">
          <mxGeometry x="355" y="455.5" width="30" height="30" as="geometry" />
        </mxCell>
        <mxCell id="JJIb5TfWh0ZeVr9pCVY0-28" value="&lt;span style=&quot;font-size: 11px&quot;&gt;$$(c^3,b^3_1)$$&lt;/span&gt;" style="text;html=1;strokeColor=none;fillColor=none;align=center;verticalAlign=middle;whiteSpace=wrap;rounded=0;fontSize=11;" vertex="1" parent="1">
          <mxGeometry x="254" y="415.5" width="30" height="30" as="geometry" />
        </mxCell>
        <mxCell id="JJIb5TfWh0ZeVr9pCVY0-29" value="&lt;span style=&quot;font-size: 11px&quot;&gt;$$(c^2,b^2_1)$$&lt;/span&gt;" style="text;html=1;strokeColor=none;fillColor=none;align=center;verticalAlign=middle;whiteSpace=wrap;rounded=0;fontSize=11;" vertex="1" parent="1">
          <mxGeometry x="365" y="330.5" width="30" height="30" as="geometry" />
        </mxCell>
        <mxCell id="JJIb5TfWh0ZeVr9pCVY0-30" value="&lt;font style=&quot;font-size: 18px&quot;&gt;Input Graph&lt;/font&gt;" style="text;html=1;strokeColor=none;fillColor=none;align=center;verticalAlign=middle;whiteSpace=wrap;rounded=0;fontSize=16;" vertex="1" parent="1">
          <mxGeometry x="224" y="285.5" width="101" height="30" as="geometry" />
        </mxCell>
        <mxCell id="JJIb5TfWh0ZeVr9pCVY0-31" value="" style="endArrow=none;html=1;rounded=0;strokeWidth=2;" edge="1" parent="1" source="JJIb5TfWh0ZeVr9pCVY0-28" target="JJIb5TfWh0ZeVr9pCVY0-23">
          <mxGeometry width="50" height="50" relative="1" as="geometry">
            <mxPoint x="234" y="416" as="sourcePoint" />
            <mxPoint x="284" y="366" as="targetPoint" />
          </mxGeometry>
        </mxCell>
        <mxCell id="JJIb5TfWh0ZeVr9pCVY0-32" value="" style="endArrow=none;html=1;rounded=0;strokeWidth=2;" edge="1" parent="1" source="JJIb5TfWh0ZeVr9pCVY0-23" target="JJIb5TfWh0ZeVr9pCVY0-27">
          <mxGeometry width="50" height="50" relative="1" as="geometry">
            <mxPoint x="325" y="672" as="sourcePoint" />
            <mxPoint x="375" y="622" as="targetPoint" />
          </mxGeometry>
        </mxCell>
        <mxCell id="JJIb5TfWh0ZeVr9pCVY0-33" value="" style="endArrow=none;html=1;rounded=0;strokeWidth=2;" edge="1" parent="1" source="JJIb5TfWh0ZeVr9pCVY0-24" target="JJIb5TfWh0ZeVr9pCVY0-28">
          <mxGeometry width="50" height="50" relative="1" as="geometry">
            <mxPoint x="170" y="642" as="sourcePoint" />
            <mxPoint x="220" y="592" as="targetPoint" />
          </mxGeometry>
        </mxCell>
        <mxCell id="JJIb5TfWh0ZeVr9pCVY0-36" value="&lt;font style=&quot;font-size: 18px&quot;&gt;Deep Reinforcement &amp;nbsp;Learning&lt;/font&gt;" style="text;html=1;strokeColor=none;fillColor=none;align=center;verticalAlign=middle;whiteSpace=wrap;rounded=0;" vertex="1" parent="1">
          <mxGeometry x="585" y="219" width="280" height="40" as="geometry" />
        </mxCell>
        <mxCell id="JJIb5TfWh0ZeVr9pCVY0-41" style="edgeStyle=orthogonalEdgeStyle;rounded=0;orthogonalLoop=1;jettySize=auto;html=1;fontSize=16;strokeWidth=2;exitX=0.75;exitY=0;exitDx=0;exitDy=0;entryX=0.25;entryY=0;entryDx=0;entryDy=0;" edge="1" parent="1" source="JJIb5TfWh0ZeVr9pCVY0-38" target="JJIb5TfWh0ZeVr9pCVY0-48">
          <mxGeometry relative="1" as="geometry">
            <mxPoint x="865" y="419" as="targetPoint" />
            <Array as="points">
              <mxPoint x="605" y="349" />
              <mxPoint x="815" y="349" />
            </Array>
          </mxGeometry>
        </mxCell>
        <mxCell id="JJIb5TfWh0ZeVr9pCVY0-42" style="edgeStyle=orthogonalEdgeStyle;rounded=0;orthogonalLoop=1;jettySize=auto;html=1;exitX=0.25;exitY=0;exitDx=0;exitDy=0;entryX=0.75;entryY=0;entryDx=0;entryDy=0;fontSize=16;strokeWidth=2;" edge="1" parent="1" source="JJIb5TfWh0ZeVr9pCVY0-38" target="JJIb5TfWh0ZeVr9pCVY0-48">
          <mxGeometry relative="1" as="geometry">
            <mxPoint x="905" y="419" as="targetPoint" />
            <Array as="points">
              <mxPoint x="545" y="299" />
              <mxPoint x="895" y="299" />
            </Array>
          </mxGeometry>
        </mxCell>
        <mxCell id="JJIb5TfWh0ZeVr9pCVY0-38" value="&lt;font style=&quot;font-size: 18px&quot;&gt;Environment&lt;/font&gt;" style="rounded=1;whiteSpace=wrap;html=1;fontSize=16;fillColor=#E0E5DF;" vertex="1" parent="1">
          <mxGeometry x="515" y="419.5" width="120" height="31.5" as="geometry" />
        </mxCell>
        <mxCell id="JJIb5TfWh0ZeVr9pCVY0-43" value="$$R_t$$" style="text;html=1;strokeColor=none;fillColor=none;align=center;verticalAlign=middle;whiteSpace=wrap;rounded=0;fontSize=16;" vertex="1" parent="1">
          <mxGeometry x="725" y="350.5" width="30" height="30" as="geometry" />
        </mxCell>
        <mxCell id="JJIb5TfWh0ZeVr9pCVY0-44" value="Reward" style="text;html=1;strokeColor=none;fillColor=none;align=center;verticalAlign=middle;whiteSpace=wrap;rounded=0;fontSize=16;" vertex="1" parent="1">
          <mxGeometry x="652.5" y="350.5" width="70" height="30" as="geometry" />
        </mxCell>
        <mxCell id="JJIb5TfWh0ZeVr9pCVY0-45" value="State" style="text;html=1;strokeColor=none;fillColor=none;align=center;verticalAlign=middle;whiteSpace=wrap;rounded=0;fontSize=16;" vertex="1" parent="1">
          <mxGeometry x="667.5" y="300.5" width="55" height="30" as="geometry" />
        </mxCell>
        <mxCell id="JJIb5TfWh0ZeVr9pCVY0-47" value="$$S_t$$" style="text;html=1;strokeColor=none;fillColor=none;align=center;verticalAlign=middle;whiteSpace=wrap;rounded=0;fontSize=16;" vertex="1" parent="1">
          <mxGeometry x="725" y="300.5" width="30" height="30" as="geometry" />
        </mxCell>
        <mxCell id="JJIb5TfWh0ZeVr9pCVY0-50" style="edgeStyle=orthogonalEdgeStyle;rounded=0;orthogonalLoop=1;jettySize=auto;html=1;entryX=0.5;entryY=1;entryDx=0;entryDy=0;fontSize=16;strokeWidth=2;exitX=0.5;exitY=1;exitDx=0;exitDy=0;" edge="1" parent="1" source="JJIb5TfWh0ZeVr9pCVY0-48" target="JJIb5TfWh0ZeVr9pCVY0-38">
          <mxGeometry relative="1" as="geometry">
            <Array as="points">
              <mxPoint x="855" y="550" />
              <mxPoint x="575" y="550" />
            </Array>
          </mxGeometry>
        </mxCell>
        <mxCell id="JJIb5TfWh0ZeVr9pCVY0-48" value="&lt;font style=&quot;font-size: 18px&quot;&gt;Heterogeneous Pointer Network&lt;/font&gt;" style="rounded=1;whiteSpace=wrap;html=1;fontSize=16;fillColor=#D0CEE2;" vertex="1" parent="1">
          <mxGeometry x="775" y="404.5" width="160" height="61.5" as="geometry" />
        </mxCell>
        <mxCell id="JJIb5TfWh0ZeVr9pCVY0-51" value="Action" style="text;html=1;strokeColor=none;fillColor=none;align=center;verticalAlign=middle;whiteSpace=wrap;rounded=0;fontSize=16;" vertex="1" parent="1">
          <mxGeometry x="575" y="465.75" width="60" height="30" as="geometry" />
        </mxCell>
        <mxCell id="JJIb5TfWh0ZeVr9pCVY0-52" value="$$a_t$$" style="text;html=1;strokeColor=none;fillColor=none;align=center;verticalAlign=middle;whiteSpace=wrap;rounded=0;fontSize=16;" vertex="1" parent="1">
          <mxGeometry x="585" y="489" width="30" height="30" as="geometry" />
        </mxCell>
        <mxCell id="JJIb5TfWh0ZeVr9pCVY0-60" value="&lt;b&gt;O&lt;br&gt;U&lt;br&gt;T&lt;br&gt;P&lt;br&gt;U&lt;br&gt;T&lt;br&gt;&lt;br&gt;S&lt;br&gt;E&lt;br&gt;Q&lt;br&gt;U&lt;br&gt;E&lt;br&gt;N&lt;br&gt;C&lt;br&gt;E&lt;/b&gt;" style="rounded=1;whiteSpace=wrap;html=1;fontSize=18;fillColor=#E0CDCF;" vertex="1" parent="1">
          <mxGeometry x="1025" y="265.87" width="40" height="338.75" as="geometry" />
        </mxCell>
      </root>
    </mxGraphModel>
  </diagram>
</mxfile>
